<svg xmlns="http://www.w3.org/2000/svg" height="512pt" version="1.1" viewBox="-60 0 512 512" width="512pt">
<g id="surface1">
<path d="M 169.574219 211.445312 C 167.613281 209.488281 164.40625 209.488281 162.445312 211.449219 L 151.457031 222.4375 C 149.496094 224.398438 149.496094 227.605469 151.457031 229.566406 L 222.441406 300.546875 C 224.398438 302.507812 227.609375 302.507812 229.566406 300.546875 L 240.558594 289.558594 C 242.519531 287.597656 242.519531 284.390625 240.558594 282.429688 Z M 169.574219 211.445312 " style=" stroke:none;fill-rule:nonzero;fill:rgb(0%,0%,0%);fill-opacity:1;" />
<path d="M 211.457031 229.566406 L 222.441406 240.554688 C 224.402344 242.515625 227.609375 242.515625 229.570312 240.554688 L 312.433594 157.691406 C 314.390625 155.730469 317.601562 155.730469 319.558594 157.691406 L 354.3125 192.445312 C 356.273438 194.402344 356.273438 197.613281 354.3125 199.570312 L 331.445312 222.4375 C 329.480469 224.398438 329.480469 227.605469 331.441406 229.566406 L 342.429688 240.554688 C 344.390625 242.515625 347.597656 242.515625 349.558594 240.554688 L 390.542969 199.574219 C 392.503906 197.613281 392.503906 194.40625 390.542969 192.445312 L 319.5625 121.460938 C 317.601562 119.5 314.394531 119.5 312.433594 121.460938 L 211.457031 222.4375 C 209.496094 224.398438 209.496094 227.605469 211.457031 229.566406 Z M 211.457031 229.566406 " style=" stroke:none;fill-rule:nonzero;fill:rgb(0%,0%,0%);fill-opacity:1;" />
<path d="M 222.4375 180.558594 C 224.398438 182.519531 227.605469 182.519531 229.566406 180.558594 L 240.554688 169.570312 C 242.515625 167.609375 242.515625 164.402344 240.554688 162.441406 L 157.691406 79.578125 C 155.730469 77.617188 155.730469 74.410156 157.691406 72.449219 L 192.441406 37.699219 C 194.402344 35.742188 197.609375 35.742188 199.570312 37.699219 L 234.324219 72.453125 C 236.285156 74.414062 236.285156 77.621094 234.324219 79.582031 L 211.457031 102.445312 C 209.496094 104.40625 209.496094 107.613281 211.457031 109.574219 L 222.441406 120.5625 C 224.402344 122.523438 227.609375 122.523438 229.570312 120.5625 L 270.554688 79.582031 C 272.515625 77.621094 272.515625 74.414062 270.554688 72.453125 L 199.574219 1.46875 C 197.613281 -0.488281 194.40625 -0.488281 192.445312 1.46875 L 121.460938 72.453125 C 119.5 74.414062 119.5 77.621094 121.460938 79.582031 Z M 222.4375 180.558594 " style=" stroke:none;fill-rule:nonzero;fill:rgb(0%,0%,0%);fill-opacity:1;" />
<path d="M 180.558594 162.441406 L 169.574219 151.457031 C 167.613281 149.496094 164.40625 149.496094 162.445312 151.457031 L 91.464844 222.4375 C 89.503906 224.398438 89.503906 227.605469 91.464844 229.570312 L 102.449219 240.554688 C 104.410156 242.515625 107.617188 242.515625 109.578125 240.554688 L 180.558594 169.570312 C 182.519531 167.609375 182.519531 164.402344 180.558594 162.441406 Z M 180.558594 162.441406 " style=" stroke:none;fill-rule:nonzero;fill:rgb(0%,0%,0%);fill-opacity:1;" />
<path d="M 102.449219 300.550781 C 104.410156 302.507812 107.617188 302.507812 109.578125 300.550781 L 120.5625 289.5625 C 122.523438 287.601562 122.523438 284.394531 120.5625 282.433594 L 37.703125 199.574219 C 35.742188 197.613281 35.742188 194.40625 37.703125 192.445312 L 72.453125 157.691406 C 74.414062 155.734375 77.621094 155.734375 79.582031 157.691406 L 102.449219 180.5625 C 104.410156 182.523438 107.617188 182.523438 109.578125 180.5625 L 120.5625 169.574219 C 122.523438 167.609375 122.523438 164.402344 120.5625 162.441406 L 79.578125 121.460938 C 77.621094 119.5 74.410156 119.5 72.453125 121.460938 L 1.472656 192.441406 C -0.488281 194.398438 -0.488281 197.609375 1.46875 199.566406 Z M 102.449219 300.550781 " style=" stroke:none;fill-rule:nonzero;fill:rgb(0%,0%,0%);fill-opacity:1;" />
<path d="M 180.558594 282.429688 L 169.574219 271.445312 C 167.613281 269.484375 164.40625 269.484375 162.445312 271.445312 L 79.582031 354.308594 C 77.621094 356.269531 74.414062 356.269531 72.453125 354.308594 L 37.703125 319.554688 C 35.742188 317.59375 35.742188 314.386719 37.703125 312.425781 L 60.570312 289.5625 C 62.53125 287.601562 62.53125 284.394531 60.570312 282.433594 L 49.582031 271.445312 C 47.621094 269.484375 44.414062 269.484375 42.453125 271.445312 L 1.472656 312.425781 C -0.488281 314.386719 -0.488281 317.59375 1.472656 319.558594 L 72.453125 390.539062 C 74.414062 392.5 77.621094 392.5 79.582031 390.539062 L 180.558594 289.558594 C 182.519531 287.601562 182.519531 284.390625 180.558594 282.429688 Z M 180.558594 282.429688 " style=" stroke:none;fill-rule:nonzero;fill:rgb(0%,0%,0%);fill-opacity:1;" />
<path d="M 169.574219 331.441406 C 167.613281 329.480469 164.40625 329.480469 162.445312 331.441406 L 151.457031 342.429688 C 149.496094 344.390625 149.496094 347.597656 151.457031 349.558594 L 234.320312 432.421875 C 236.28125 434.378906 236.28125 437.589844 234.320312 439.546875 L 199.570312 474.300781 C 197.609375 476.257812 194.402344 476.257812 192.441406 474.300781 L 157.691406 439.546875 C 155.730469 437.589844 155.730469 434.378906 157.691406 432.417969 L 180.558594 409.550781 C 182.515625 407.59375 182.515625 404.382812 180.558594 402.421875 L 169.570312 391.4375 C 167.613281 389.476562 164.402344 389.476562 162.445312 391.4375 L 121.460938 432.421875 C 119.5 434.378906 119.5 437.589844 121.460938 439.546875 L 192.441406 510.53125 C 194.402344 512.488281 197.609375 512.488281 199.570312 510.53125 L 270.550781 439.546875 C 272.511719 437.589844 272.511719 434.378906 270.550781 432.421875 Z M 169.574219 331.441406 " style=" stroke:none;fill-rule:nonzero;fill:rgb(0%,0%,0%);fill-opacity:1;" />
<path d="M 211.453125 349.558594 L 222.4375 360.542969 C 224.398438 362.503906 227.605469 362.503906 229.566406 360.542969 L 300.550781 289.558594 C 302.511719 287.597656 302.511719 284.390625 300.550781 282.429688 L 289.5625 271.445312 C 287.601562 269.484375 284.394531 269.484375 282.433594 271.445312 L 211.453125 342.429688 C 209.492188 344.386719 209.492188 347.59375 211.453125 349.558594 Z M 211.453125 349.558594 " style=" stroke:none;fill-rule:nonzero;fill:rgb(0%,0%,0%);fill-opacity:1;" />
<path d="M 289.5625 211.449219 C 287.601562 209.492188 284.394531 209.492188 282.433594 211.453125 L 271.449219 222.4375 C 269.488281 224.398438 269.488281 227.605469 271.449219 229.566406 L 354.3125 312.425781 C 356.273438 314.386719 356.273438 317.59375 354.3125 319.554688 L 319.5625 354.308594 C 317.601562 356.265625 314.394531 356.265625 312.433594 354.308594 L 289.5625 331.4375 C 287.601562 329.480469 284.394531 329.480469 282.433594 331.4375 L 271.449219 342.425781 C 269.488281 344.386719 269.488281 347.59375 271.449219 349.554688 L 312.433594 390.539062 C 314.394531 392.5 317.601562 392.5 319.5625 390.539062 L 390.542969 319.558594 C 392.503906 317.597656 392.503906 314.390625 390.542969 312.429688 Z M 289.5625 211.449219 " style=" stroke:none;fill-rule:nonzero;fill:rgb(0%,0%,0%);fill-opacity:1;" />
</g>
</svg>