<?xml version="1.0" standalone="no"?><!-- Generator: Gravit.io -->
<svg xmlns="http://www.w3.org/2000/svg" 
    xmlns:xlink="http://www.w3.org/1999/xlink" style="isolation:isolate" viewBox="0 0 300 300" width="300" height="300">
    <defs>
        <clipPath id="_clipPath_DjOlFSpRXjNOa6gRSxsCg5wXNXnBzidU">
            <rect width="300" height="300"/>
        </clipPath>
    </defs>
    <g clip-path="url(#_clipPath_DjOlFSpRXjNOa6gRSxsCg5wXNXnBzidU)">
        <clipPath id="_clipPath_r7fKNQZPALSRreU6zRHUogDWgIGfWXL2">
            <path d=" M 0 0 L 300 0 L 300 300 L 0 300 L 0 0 Z " fill="rgb(255,255,255)"/>
        </clipPath>
        <g clip-path="url(#_clipPath_r7fKNQZPALSRreU6zRHUogDWgIGfWXL2)">
            <path id="I" d=" M 52.456 137.926 C 52.456 136.934 51.688 136.246 50.152 135.862 C 48.616 135.478 46.736 135.286 44.512 135.286 C 42.288 135.286 39.383 135.606 35.8 136.246 C 29.687 137.366 25.399 138.838 22.936 140.662 C 21.88 141.43 21.352 142.182 21.352 142.918 C 21.352 143.655 21.863 144.374 22.888 145.078 C 23.111 145.206 23.104 145.278 22.864 145.294 C 22.624 145.31 22.424 145.254 22.264 145.126 C 21.463 144.582 20.888 143.814 20.536 142.822 C 20.375 142.374 20.296 141.878 20.296 141.334 C 20.296 139.383 21.271 137.862 23.224 136.774 C 25.687 135.334 28.76 134.19 32.44 133.342 C 36.119 132.494 39.592 132.07 42.856 132.07 C 45.032 132.07 47.207 132.47 49.384 133.27 C 50.536 133.718 51.4 134.343 51.976 135.142 C 52.552 135.942 52.84 136.79 52.84 137.686 C 52.84 138.422 52.751 138.782 52.576 138.766 C 52.399 138.75 52.336 138.646 52.384 138.454 C 52.432 138.262 52.456 138.086 52.456 137.926 Z  M 47.368 135.91 C 47.656 135.91 47.8 135.99 47.8 136.15 C 47.8 136.374 47.623 136.726 47.272 137.206 C 42.536 143.446 37.687 150.759 32.728 159.142 C 34.808 159.366 36.64 159.742 38.224 160.27 C 39.808 160.798 41.08 161.583 42.04 162.622 C 43 163.662 43.48 164.838 43.48 166.15 C 43.48 167.014 43.352 167.429 43.096 167.398 C 42.935 167.398 42.88 167.286 42.928 167.062 C 42.976 166.838 43 166.678 43 166.582 C 43 165.845 42.439 165.174 41.32 164.566 C 39.304 163.478 36.359 162.934 32.488 162.934 C 31.847 162.934 31.192 162.95 30.52 162.982 C 28.888 165.893 27.768 168.118 27.16 169.654 C 26.999 170.006 26.848 170.182 26.704 170.182 C 26.56 170.182 26.488 170.006 26.488 169.654 C 26.488 168.822 27.431 166.614 29.32 163.03 C 27.144 163.222 24.935 163.765 22.696 164.662 C 21.768 165.013 21.016 165.31 20.44 165.551 C 19.864 165.79 19.207 165.982 18.472 166.126 C 17.735 166.27 17.272 166.198 17.08 165.91 C 16.823 165.718 16.696 165.437 16.696 165.07 C 16.696 164.702 16.768 164.302 16.912 163.87 C 17.056 163.438 17.352 162.966 17.8 162.454 C 18.76 161.27 20.68 160.31 23.56 159.574 C 25.127 159.159 26.647 158.95 28.12 158.95 C 29.591 158.95 30.743 158.982 31.576 159.046 C 34.487 154.119 37.679 149.038 41.152 143.806 C 44.623 138.574 46.552 135.958 46.936 135.958 L 47.368 135.91 Z " fill="rgb(0,0,0)"/>
            <path id="n" d=" M 57.783 152.183 C 58.231 151.671 58.455 151.271 58.455 150.982 C 58.455 150.694 58.159 150.551 57.567 150.551 C 56.975 150.551 56.039 151.111 54.759 152.231 C 53.575 153.255 52.143 154.967 50.463 157.367 C 48.783 159.767 47.567 161.391 46.815 162.239 C 46.063 163.086 45.399 163.511 44.823 163.511 L 44.631 163.511 C 43.8 163.511 42.984 163.175 42.183 162.502 C 42.375 162.214 42.84 161.59 43.575 160.63 C 45.207 158.647 46.631 156.727 47.847 154.871 C 46.471 156.246 45.303 157.319 44.343 158.086 C 44.024 158.343 43.839 158.359 43.791 158.135 C 43.743 157.912 43.815 157.711 44.007 157.535 C 44.199 157.359 44.519 157.072 44.967 156.67 C 45.415 156.271 45.711 156.007 45.855 155.878 C 45.999 155.751 46.271 155.503 46.671 155.135 C 47.071 154.767 47.367 154.471 47.559 154.246 C 48.455 153.191 49.111 152.295 49.527 151.559 C 49.687 151.175 49.759 150.799 49.743 150.431 C 49.727 150.063 49.647 149.823 49.503 149.71 C 49.359 149.599 49.303 149.463 49.335 149.303 C 49.335 149.047 49.463 148.918 49.719 148.918 C 49.847 148.918 49.991 148.951 50.151 149.015 C 51.143 149.463 51.639 150.351 51.639 151.679 C 51.639 153.007 51.351 154.423 50.775 155.927 C 52.023 154.294 52.967 153.127 53.607 152.422 C 55.271 150.567 56.903 149.639 58.503 149.639 C 60.071 149.639 60.999 150.31 61.287 151.655 C 61.319 151.847 61.335 152.143 61.335 152.542 C 61.335 152.943 61.183 153.479 60.879 154.151 C 60.575 154.823 59.863 155.927 58.743 157.462 C 57.623 158.998 56.975 159.967 56.799 160.367 C 56.623 160.767 56.567 161.063 56.631 161.254 C 56.695 161.447 56.839 161.559 57.063 161.59 C 57.447 161.656 58.103 161.399 59.031 160.823 C 60.343 159.895 62.039 158.471 64.119 156.551 C 64.471 156.199 64.647 156.231 64.647 156.647 C 64.647 156.807 64.567 156.967 64.407 157.126 C 61.303 160.006 58.999 161.799 57.495 162.502 C 55.735 163.398 54.359 163.542 53.367 162.935 C 52.759 162.551 52.455 162.015 52.455 161.327 C 52.455 160.639 52.583 159.943 52.839 159.239 C 53.415 157.607 55.063 155.254 57.783 152.183 Z " fill="rgb(0,0,0)"/>
            <path id="v" d=" M 82.167 148.678 C 82.199 148.742 82.215 148.806 82.215 148.87 C 82.215 148.934 82.159 148.95 82.047 148.918 C 81.935 148.886 81.863 148.838 81.831 148.774 C 81.607 148.294 81.303 148.054 80.919 148.054 C 79.767 148.054 77.703 150.422 74.727 155.158 C 72.871 158.167 71.319 160.294 70.071 161.542 C 69.431 162.182 68.679 162.631 67.815 162.886 C 66.951 163.141 66.327 163.27 65.943 163.27 C 65.559 163.27 65.254 163.222 65.031 163.126 C 65.542 162.39 66.087 161.199 66.663 159.551 C 67.239 157.902 67.679 156.447 67.983 155.182 C 68.287 153.919 68.422 153.286 68.391 153.286 L 66.375 155.303 C 65.351 156.358 64.327 157.287 63.303 158.086 C 62.919 158.406 62.727 158.39 62.727 158.038 C 62.727 157.846 62.815 157.671 62.991 157.511 C 63.167 157.35 63.48 157.071 63.927 156.67 C 64.375 156.27 64.671 156.007 64.815 155.878 C 64.959 155.751 65.23 155.503 65.631 155.135 C 66.031 154.766 66.327 154.47 66.519 154.246 C 67.415 153.19 68.071 152.295 68.487 151.558 C 68.647 151.175 68.719 150.798 68.703 150.43 C 68.687 150.062 68.607 149.823 68.463 149.71 C 68.319 149.598 68.263 149.462 68.295 149.302 C 68.327 148.918 68.599 148.822 69.111 149.014 C 70.231 149.526 70.839 150.262 70.935 151.222 C 71.031 151.702 71.079 152.367 71.079 153.214 C 71.079 154.062 70.918 155.383 70.599 157.175 C 70.279 159.03 69.67 160.63 68.775 161.974 C 70.215 161.047 71.871 158.734 73.743 155.038 C 75.615 151.343 77.079 148.982 78.135 147.958 C 78.583 147.51 79.143 147.286 79.815 147.286 C 80.999 147.286 81.783 147.75 82.167 148.678 Z " fill="rgb(0,0,0)"/>
            <path id="i" d=" M 88.263 148.294 C 87.91 148.006 87.766 147.591 87.831 147.046 C 87.895 146.502 88.182 145.926 88.695 145.318 C 89.206 144.711 89.895 144.406 90.759 144.406 C 91.014 144.406 91.287 144.526 91.575 144.766 C 91.863 145.006 91.974 145.407 91.911 145.966 C 91.846 146.526 91.591 147.054 91.143 147.55 C 90.694 148.046 90.19 148.366 89.631 148.51 C 89.071 148.654 88.615 148.582 88.263 148.294 Z  M 87.639 150.838 C 86.326 152.183 85.231 153.887 84.351 155.95 C 83.471 158.015 83.031 159.463 83.031 160.294 C 83.031 161.127 83.359 161.542 84.015 161.542 C 84.67 161.542 85.759 161.063 87.279 160.103 C 88.798 159.143 90.534 157.782 92.487 156.023 C 92.902 155.639 93.111 155.687 93.111 156.166 C 93.111 156.231 93.078 156.295 93.015 156.358 C 91.479 157.702 90.183 158.807 89.127 159.67 C 88.071 160.534 86.815 161.358 85.359 162.143 C 83.902 162.927 82.711 163.318 81.783 163.318 C 80.631 163.318 79.774 163.062 79.215 162.551 C 78.655 162.039 78.375 161.479 78.375 160.87 C 78.375 159.719 78.583 158.807 78.999 158.135 C 79.414 157.462 80.118 156.534 81.111 155.351 C 80.758 155.639 80.206 156.118 79.455 156.79 C 78.702 157.462 78.183 157.911 77.895 158.135 C 77.607 158.358 77.463 158.295 77.463 157.942 C 77.463 157.719 77.72 157.398 78.231 156.982 C 78.742 156.566 79.855 155.511 81.567 153.815 C 83.278 152.118 84.447 151.11 85.071 150.79 C 85.695 150.471 86.206 150.31 86.607 150.31 C 87.007 150.31 87.303 150.366 87.495 150.478 C 87.687 150.591 87.735 150.711 87.639 150.838 Z " fill="rgb(0,0,0)"/>
            <path id="n" d=" M 104.438 152.183 C 104.886 151.671 105.11 151.271 105.11 150.982 C 105.11 150.694 104.814 150.551 104.222 150.551 C 103.63 150.551 102.694 151.111 101.414 152.231 C 100.23 153.255 98.798 154.967 97.118 157.367 C 95.438 159.767 94.222 161.391 93.47 162.239 C 92.718 163.086 92.054 163.511 91.478 163.511 L 91.286 163.511 C 90.455 163.511 89.639 163.175 88.838 162.502 C 89.03 162.214 89.495 161.59 90.23 160.63 C 91.862 158.647 93.286 156.727 94.502 154.871 C 93.126 156.246 91.958 157.319 90.998 158.086 C 90.679 158.343 90.494 158.359 90.446 158.135 C 90.398 157.912 90.47 157.711 90.662 157.535 C 90.854 157.359 91.174 157.072 91.622 156.67 C 92.07 156.271 92.366 156.007 92.51 155.878 C 92.654 155.751 92.926 155.503 93.326 155.135 C 93.726 154.767 94.022 154.471 94.214 154.246 C 95.11 153.191 95.766 152.295 96.182 151.559 C 96.342 151.175 96.414 150.799 96.398 150.431 C 96.382 150.063 96.302 149.823 96.158 149.71 C 96.014 149.599 95.958 149.463 95.99 149.303 C 95.99 149.047 96.118 148.918 96.374 148.918 C 96.502 148.918 96.646 148.951 96.806 149.015 C 97.798 149.463 98.294 150.351 98.294 151.679 C 98.294 153.007 98.006 154.423 97.43 155.927 C 98.678 154.294 99.622 153.127 100.262 152.422 C 101.926 150.567 103.558 149.639 105.158 149.639 C 106.726 149.639 107.654 150.31 107.942 151.655 C 107.974 151.847 107.99 152.143 107.99 152.542 C 107.99 152.943 107.838 153.479 107.534 154.151 C 107.23 154.823 106.518 155.927 105.398 157.462 C 104.278 158.998 103.63 159.967 103.454 160.367 C 103.278 160.767 103.222 161.063 103.286 161.254 C 103.35 161.447 103.494 161.559 103.718 161.59 C 104.102 161.656 104.758 161.399 105.686 160.823 C 106.998 159.895 108.694 158.471 110.774 156.551 C 111.126 156.199 111.302 156.231 111.302 156.647 C 111.302 156.807 111.222 156.967 111.062 157.126 C 107.958 160.006 105.654 161.799 104.15 162.502 C 102.39 163.398 101.014 163.542 100.022 162.935 C 99.414 162.551 99.11 162.015 99.11 161.327 C 99.11 160.639 99.238 159.943 99.494 159.239 C 100.07 157.607 101.718 155.254 104.438 152.183 Z " fill="rgb(0,0,0)"/>
            <path id="c" d=" M 124.454 151.559 C 124.454 150.951 124.134 150.646 123.494 150.646 C 122.95 150.646 122.11 150.895 120.974 151.391 C 119.838 151.887 118.566 152.951 117.158 154.582 C 115.462 156.599 114.614 158.391 114.614 159.958 C 114.614 161.143 115.062 161.943 115.958 162.359 C 116.246 162.487 116.582 162.551 116.966 162.551 C 118.278 162.551 119.822 161.992 121.598 160.871 C 123.374 159.751 125.67 157.895 128.486 155.303 C 128.933 154.855 129.158 154.855 129.158 155.303 C 129.158 155.495 129.062 155.671 128.87 155.83 C 124.966 159.415 122.094 161.631 120.254 162.479 C 118.414 163.327 116.966 163.75 115.91 163.75 C 112.198 163.75 110.342 162.391 110.342 159.67 C 110.342 156.952 111.566 154.607 114.014 152.639 C 116.462 150.67 119.014 149.686 121.67 149.686 C 123.334 149.686 124.454 150.071 125.03 150.838 C 125.382 151.223 125.558 151.63 125.558 152.063 C 125.558 152.495 125.446 152.943 125.223 153.407 C 124.998 153.871 124.638 154.103 124.142 154.103 C 123.646 154.103 123.574 153.79 123.926 153.166 C 124.278 152.542 124.454 152.007 124.454 151.559 Z " fill="rgb(0,0,0)"/>
            <path id="i" d=" M 136.647 148.294 C 136.294 148.006 136.15 147.591 136.214 147.046 C 136.279 146.502 136.567 145.926 137.079 145.318 C 137.59 144.711 138.279 144.406 139.143 144.406 C 139.399 144.406 139.67 144.526 139.959 144.766 C 140.247 145.006 140.359 145.407 140.294 145.966 C 140.23 146.526 139.974 147.054 139.527 147.55 C 139.079 148.046 138.575 148.366 138.015 148.51 C 137.455 148.654 136.999 148.582 136.647 148.294 Z  M 136.023 150.838 C 134.71 152.183 133.615 153.887 132.735 155.95 C 131.854 158.015 131.415 159.463 131.415 160.294 C 131.415 161.127 131.743 161.542 132.399 161.542 C 133.054 161.542 134.143 161.063 135.663 160.103 C 137.182 159.143 138.918 157.782 140.871 156.023 C 141.287 155.639 141.495 155.687 141.495 156.166 C 141.495 156.231 141.462 156.295 141.399 156.358 C 139.863 157.702 138.567 158.807 137.511 159.67 C 136.455 160.534 135.199 161.358 133.743 162.143 C 132.287 162.927 131.094 163.318 130.167 163.318 C 129.015 163.318 128.159 163.062 127.599 162.551 C 127.039 162.039 126.759 161.479 126.759 160.87 C 126.759 159.719 126.966 158.807 127.383 158.135 C 127.798 157.462 128.502 156.534 129.495 155.351 C 129.142 155.639 128.59 156.118 127.838 156.79 C 127.086 157.462 126.567 157.911 126.279 158.135 C 125.991 158.358 125.847 158.295 125.847 157.942 C 125.847 157.719 126.103 157.398 126.615 156.982 C 127.126 156.566 128.239 155.511 129.951 153.815 C 131.663 152.118 132.831 151.11 133.455 150.79 C 134.079 150.471 134.59 150.31 134.991 150.31 C 135.39 150.31 135.687 150.366 135.878 150.478 C 136.071 150.591 136.119 150.711 136.023 150.838 Z " fill="rgb(0,0,0)"/>
            <path id="b" d=" M 152.15 151.462 C 151.637 151.462 150.998 151.671 150.23 152.086 C 148.853 152.823 147.637 154.006 146.582 155.639 C 145.334 157.526 144.71 159.334 144.71 161.063 C 144.71 162.214 145.029 162.966 145.67 163.318 C 146.021 163.542 146.462 163.654 146.99 163.654 C 147.517 163.654 148.181 163.446 148.982 163.03 C 150.326 162.358 151.542 161.191 152.629 159.526 C 153.845 157.639 154.454 155.823 154.454 154.078 C 154.454 152.335 153.685 151.462 152.15 151.462 Z  M 158.774 151.798 C 158.774 154.039 157.653 156.471 155.414 159.095 C 153.75 161.047 151.925 162.486 149.942 163.414 C 148.885 163.895 147.965 164.135 147.181 164.135 C 146.397 164.135 145.685 163.918 145.046 163.486 C 144.405 163.055 144.086 162.391 144.086 161.494 C 144.086 160.599 144.213 159.719 144.469 158.855 C 143.349 160.551 142.469 161.751 141.83 162.454 C 141.189 163.158 140.582 163.511 140.005 163.511 L 139.765 163.511 C 138.934 163.511 138.133 163.175 137.366 162.502 C 139.446 159.591 141.061 157.223 142.213 155.399 C 141.477 156.135 140.565 156.951 139.477 157.847 C 139.19 158.07 138.99 158.11 138.878 157.967 C 138.766 157.822 138.886 157.591 139.238 157.271 C 140.198 156.471 140.87 155.895 141.254 155.542 C 142.502 154.326 144.005 152.343 145.765 149.59 C 150.662 142.006 153.11 137.302 153.11 135.478 C 153.11 134.838 152.79 134.503 152.15 134.47 C 152.086 134.47 152.053 134.439 152.053 134.374 C 152.053 134.311 152.086 134.278 152.15 134.278 C 153.621 134.343 154.469 135.318 154.694 137.206 L 154.694 137.638 C 154.694 140.134 152.613 145.03 148.454 152.326 C 150.053 150.727 151.67 149.607 153.301 148.966 C 154.101 148.647 154.845 148.486 155.534 148.486 C 156.221 148.486 156.87 148.647 157.477 148.966 C 158.341 149.67 158.774 150.615 158.774 151.798 Z " fill="rgb(0,0,0)"/>
            <path id="l" d=" M 162.806 160.967 C 162.806 161.83 163.238 162.263 164.102 162.263 C 164.613 162.263 165.421 162.055 166.526 161.639 C 167.629 161.223 169.061 160.311 170.822 158.903 C 172.581 157.494 173.765 156.479 174.373 155.855 C 174.981 155.231 175.349 154.927 175.478 154.943 C 175.605 154.959 175.653 155.055 175.621 155.231 C 175.589 155.406 175.509 155.559 175.381 155.687 C 172.661 158.471 170.406 160.471 168.614 161.687 C 166.821 162.903 165.158 163.511 163.621 163.511 C 162.309 163.511 161.397 163.206 160.885 162.599 C 160.373 161.991 160.118 161.286 160.118 160.487 C 160.118 159.046 160.629 157.319 161.654 155.303 C 159.797 157.287 158.869 157.927 158.869 157.223 C 158.869 157.095 158.965 156.951 159.158 156.79 C 160.661 155.574 162.278 153.815 164.005 151.511 C 167.173 147.383 169.653 143.751 171.446 140.614 C 171.765 140.007 171.925 139.558 171.925 139.27 C 171.925 138.598 171.557 138.471 170.822 138.886 C 169.989 139.302 169.541 139.462 169.478 139.366 C 169.413 139.27 169.461 139.143 169.621 138.982 C 170.39 138.406 171.446 137.863 172.789 137.35 C 174.133 136.839 175.238 136.567 176.102 136.534 C 177.446 136.534 178.118 136.95 178.118 137.782 C 178.118 138.262 177.885 138.903 177.421 139.702 C 176.957 140.503 175.629 142.095 173.438 144.478 C 171.245 146.863 169.91 148.359 169.43 148.967 C 166.133 153.286 164.037 156.727 163.142 159.286 C 162.917 159.958 162.806 160.519 162.806 160.967 Z " fill="rgb(0,0,0)"/>
            <path id="e" d=" M 184.501 155.446 C 186.196 154.518 187.045 153.574 187.045 152.614 C 187.045 151.654 186.469 151.175 185.316 151.175 C 184.772 151.175 184.196 151.318 183.589 151.606 C 182.244 152.215 180.948 153.27 179.7 154.774 C 178.165 156.631 177.397 158.358 177.397 159.958 C 177.397 160.566 177.564 161.134 177.9 161.662 C 178.236 162.19 178.837 162.454 179.7 162.454 C 181.204 162.454 183.108 161.662 185.412 160.078 C 187.717 158.494 189.7 156.902 191.364 155.302 C 191.749 154.918 191.94 154.902 191.94 155.254 C 191.94 155.478 191.845 155.671 191.652 155.83 C 190.469 156.919 189.677 157.646 189.276 158.014 C 188.876 158.383 188.084 159.039 186.9 159.982 C 185.716 160.926 184.756 161.59 184.021 161.974 C 181.748 163.158 179.82 163.75 178.236 163.75 C 176.652 163.75 175.404 163.39 174.492 162.67 C 173.58 161.95 173.125 160.95 173.125 159.67 C 173.125 156.951 174.34 154.606 176.772 152.638 C 179.204 150.67 181.748 149.686 184.404 149.686 C 186.196 149.686 187.397 150.07 188.005 150.838 C 188.261 151.222 188.389 151.63 188.389 152.062 C 188.389 152.494 188.244 152.967 187.957 153.478 C 187.381 154.47 186.301 155.342 184.717 156.094 C 183.133 156.846 181.637 157.222 180.229 157.222 C 179.684 157.222 179.389 157.175 179.341 157.078 C 179.293 156.982 179.332 156.91 179.461 156.862 C 179.588 156.814 179.765 156.79 179.988 156.79 C 181.268 156.79 182.772 156.342 184.501 155.446 Z " fill="rgb(0,0,0)"/>
            <path id="Z" d=" M 224.341 164.038 C 224.341 162.214 221.189 161.303 214.885 161.303 C 210.021 161.303 203.54 161.894 195.445 163.078 C 193.908 163.334 192.868 163.511 192.324 163.606 C 191.78 163.702 191.445 163.75 191.317 163.75 C 190.676 163.75 190.116 163.382 189.637 162.646 C 189.413 162.327 189.301 161.975 189.301 161.59 C 189.301 161.206 189.557 160.822 190.069 160.438 C 191.221 159.67 192.26 159.078 193.189 158.662 L 193.333 158.566 C 197.941 153.958 203.269 149.43 209.317 144.982 C 215.364 140.535 220.597 137.606 225.013 136.198 C 223.796 135.11 221.204 134.566 217.237 134.566 C 211.061 134.566 206.069 135.43 202.261 137.158 C 200.116 138.118 199.045 139.158 199.045 140.278 C 199.045 140.854 199.317 141.447 199.861 142.054 C 199.988 142.182 199.964 142.246 199.788 142.246 C 199.612 142.246 199.445 142.182 199.284 142.054 C 198.612 141.414 198.277 140.703 198.277 139.918 C 198.277 139.134 198.565 138.279 199.141 137.35 C 201.349 133.894 206.021 131.926 213.156 131.446 C 214.084 131.414 215.3 131.398 216.805 131.398 C 218.309 131.398 219.861 131.542 221.461 131.83 C 225.044 132.534 226.837 133.911 226.837 135.958 L 226.837 136.294 C 226.964 136.422 227.029 136.551 227.029 136.678 C 227.029 136.806 226.933 136.934 226.74 137.062 C 226.708 137.382 226.62 137.734 226.477 138.118 C 226.333 138.502 226.22 138.718 226.141 138.766 C 226.061 138.814 226.013 138.798 225.996 138.718 C 225.981 138.639 226.021 138.478 226.116 138.238 C 226.213 137.998 226.244 137.718 226.213 137.398 L 226.069 137.494 C 220.565 139.99 215.125 143.126 209.749 146.902 C 204.373 150.678 199.637 154.375 195.541 157.99 C 197.492 157.383 200.516 157.078 204.612 157.078 C 213.605 157.078 219.716 158.183 222.948 160.391 C 224.261 161.286 224.917 162.327 224.917 163.511 C 224.917 163.99 224.828 164.446 224.653 164.878 C 224.477 165.31 224.309 165.526 224.149 165.526 C 223.925 165.526 223.901 165.358 224.076 165.022 C 224.252 164.686 224.341 164.357 224.341 164.038 Z " fill="rgb(0,0,0)"/>
            <path id="e" d=" M 236.581 155.446 C 238.276 154.518 239.125 153.574 239.125 152.614 C 239.125 151.654 238.549 151.175 237.396 151.175 C 236.852 151.175 236.276 151.318 235.669 151.606 C 234.324 152.215 233.028 153.27 231.78 154.774 C 230.245 156.631 229.477 158.358 229.477 159.958 C 229.477 160.566 229.644 161.134 229.98 161.662 C 230.316 162.19 230.917 162.454 231.78 162.454 C 233.284 162.454 235.188 161.662 237.492 160.078 C 239.797 158.494 241.78 156.902 243.444 155.302 C 243.829 154.918 244.02 154.902 244.02 155.254 C 244.02 155.478 243.925 155.671 243.732 155.83 C 242.549 156.919 241.757 157.646 241.356 158.014 C 240.956 158.383 240.164 159.039 238.98 159.982 C 237.796 160.926 236.836 161.59 236.101 161.974 C 233.828 163.158 231.9 163.75 230.316 163.75 C 228.732 163.75 227.484 163.39 226.572 162.67 C 225.66 161.95 225.205 160.95 225.205 159.67 C 225.205 156.951 226.42 154.606 228.852 152.638 C 231.284 150.67 233.828 149.686 236.484 149.686 C 238.276 149.686 239.477 150.07 240.085 150.838 C 240.341 151.222 240.469 151.63 240.469 152.062 C 240.469 152.494 240.324 152.967 240.037 153.478 C 239.461 154.47 238.381 155.342 236.797 156.094 C 235.213 156.846 233.717 157.222 232.309 157.222 C 231.764 157.222 231.469 157.175 231.421 157.078 C 231.373 156.982 231.412 156.91 231.541 156.862 C 231.668 156.814 231.845 156.79 232.068 156.79 C 233.348 156.79 234.852 156.342 236.581 155.446 Z " fill="rgb(0,0,0)"/>
            <path id="a" d=" M 255.925 150.79 C 255.253 150.79 254.452 150.998 253.525 151.414 C 251.893 152.118 250.34 153.334 248.868 155.062 C 246.532 157.814 245.364 159.831 245.364 161.11 C 245.364 161.782 245.636 162.118 246.181 162.118 C 246.628 162.118 247.372 161.83 248.413 161.254 C 249.452 160.679 250.821 159.543 252.517 157.847 C 252.612 157.75 252.981 157.398 253.621 156.79 C 254.261 156.183 254.804 155.655 255.253 155.206 C 256.757 153.639 257.509 152.511 257.509 151.822 C 257.509 151.135 256.981 150.79 255.925 150.79 Z  M 259.429 155.542 C 259.076 155.959 258.716 156.406 258.349 156.887 C 257.981 157.366 257.517 158.022 256.957 158.854 C 256.397 159.686 256.116 160.391 256.116 160.967 C 256.116 161.542 256.364 161.83 256.861 161.83 C 257.357 161.83 258.164 161.526 259.284 160.918 C 261.525 159.639 264.005 157.719 266.725 155.158 C 267.044 154.839 267.253 154.791 267.349 155.015 L 267.349 155.206 C 267.349 155.303 267.284 155.415 267.156 155.542 C 261.653 160.727 257.653 163.318 255.156 163.318 C 254.42 163.318 253.805 163.07 253.309 162.574 C 252.813 162.078 252.565 161.494 252.565 160.822 C 252.565 160.15 252.853 159.127 253.429 157.75 C 251.988 159.543 250.445 160.927 248.797 161.902 C 247.149 162.879 245.861 163.366 244.933 163.366 C 244.004 163.366 243.212 163.086 242.557 162.526 C 241.901 161.967 241.572 161.27 241.572 160.438 C 241.572 158.07 242.629 155.751 244.74 153.478 C 246.341 151.782 248.324 150.582 250.693 149.878 C 251.749 149.526 252.78 149.35 253.789 149.35 C 254.797 149.35 255.773 149.63 256.717 150.19 C 257.66 150.75 258.26 151.414 258.517 152.183 C 259.477 152.183 260.164 152.535 260.581 153.238 C 260.645 153.334 260.677 153.495 260.677 153.719 C 260.677 153.942 260.557 154.198 260.317 154.486 C 260.076 154.774 259.78 155.127 259.429 155.542 Z " fill="rgb(0,0,0)"/>
            <path id="l" d=" M 268.548 160.967 C 268.548 161.83 268.98 162.263 269.844 162.263 C 270.355 162.263 271.163 162.055 272.268 161.639 C 273.371 161.223 274.803 160.311 276.564 158.903 C 278.323 157.494 279.507 156.479 280.115 155.855 C 280.723 155.231 281.091 154.927 281.22 154.943 C 281.347 154.959 281.395 155.055 281.363 155.231 C 281.331 155.406 281.251 155.559 281.123 155.687 C 278.403 158.471 276.148 160.471 274.356 161.687 C 272.563 162.903 270.9 163.511 269.363 163.511 C 268.051 163.511 267.139 163.206 266.627 162.599 C 266.115 161.991 265.86 161.286 265.86 160.487 C 265.86 159.046 266.371 157.319 267.396 155.303 C 265.539 157.287 264.611 157.927 264.611 157.223 C 264.611 157.095 264.707 156.951 264.9 156.79 C 266.403 155.574 268.02 153.815 269.747 151.511 C 272.915 147.383 275.395 143.751 277.188 140.614 C 277.507 140.007 277.667 139.558 277.667 139.27 C 277.667 138.598 277.299 138.471 276.564 138.886 C 275.731 139.302 275.283 139.462 275.22 139.366 C 275.155 139.27 275.203 139.143 275.363 138.982 C 276.132 138.406 277.188 137.863 278.531 137.35 C 279.875 136.839 280.98 136.567 281.844 136.534 C 283.188 136.534 283.86 136.95 283.86 137.782 C 283.86 138.262 283.627 138.903 283.163 139.702 C 282.699 140.503 281.371 142.095 279.18 144.478 C 276.987 146.863 275.652 148.359 275.172 148.967 C 271.875 153.286 269.779 156.727 268.884 159.286 C 268.659 159.958 268.548 160.519 268.548 160.967 Z " fill="rgb(0,0,0)"/>
        </g>
    </g>
</svg>